<?xml version="1.0" standalone="no"?>
<!DOCTYPE svg PUBLIC "-//W3C//DTD SVG 20010904//EN"
 "http://www.w3.org/TR/2001/REC-SVG-20010904/DTD/svg10.dtd">
<svg version="1.0" xmlns="http://www.w3.org/2000/svg"
 width="512.000000pt" height="512.000000pt" viewBox="0 0 512.000000 512.000000"
 preserveAspectRatio="xMidYMid meet">

<g transform="translate(0.000000,512.000000) scale(0.100000,-0.100000)"
fill="#000000" stroke="none">
<path d="M2352 4299 c-413 -87 -726 -403 -813 -820 -18 -88 -20 -125 -16 -239
12 -277 111 -504 305 -697 131 -130 287 -219 472 -271 85 -24 112 -27 260 -27
148 0 175 3 260 27 370 103 646 377 746 740 37 138 44 327 15 467 -119 571
-669 938 -1229 820z"/>
<path d="M1605 2363 c-437 -270 -745 -711 -845 -1210 -29 -145 -27 -176 13
-219 20 -22 47 -38 72 -44 53 -13 3377 -13 3430 0 58 13 105 67 105 121 0 115
-78 391 -159 564 -162 343 -439 641 -768 825 l-42 23 -55 -51 c-31 -27 -86
-70 -123 -95 -374 -247 -832 -273 -1226 -70 -92 48 -223 139 -266 187 -14 14
-29 26 -35 25 -6 0 -51 -25 -101 -56z"/>
</g>
</svg>
